<?xml version="1.0" encoding="UTF-8"?>
<svg id="Layer_1" data-name="Layer 1" xmlns="http://www.w3.org/2000/svg" xmlns:xlink="http://www.w3.org/1999/xlink" viewBox="0 0 1080 1080">
  <defs>
    <style>
      .cls-1 {
        fill: url(#linear-gradient);
      }

      .cls-1, .cls-2, .cls-3, .cls-4, .cls-5, .cls-6, .cls-7, .cls-8, .cls-9, .cls-10, .cls-11, .cls-12, .cls-13, .cls-14 {
        stroke-width: 0px;
      }

      .cls-2 {
        fill: #000;
      }

      .cls-3 {
        fill: url(#linear-gradient-6);
      }

      .cls-4 {
        fill: url(#linear-gradient-5);
      }

      .cls-5 {
        fill: none;
      }

      .cls-6 {
        fill: #60563b;
      }

      .cls-7 {
        fill: #7c6832;
      }

      .cls-8 {
        fill: url(#linear-gradient-2);
      }

      .cls-9 {
        fill: url(#linear-gradient-7);
      }

      .cls-10 {
        fill: url(#linear-gradient-3);
      }

      .cls-15 {
        clip-path: url(#clippath);
      }

      .cls-11 {
        fill: #fffdc5;
      }

      .cls-12 {
        fill: #ef091f;
      }

      .cls-13 {
        fill: #fff;
      }

      .cls-14 {
        fill: url(#linear-gradient-4);
      }
    </style>
    <linearGradient id="linear-gradient" x1="981.32" y1="-1.98" x2="200.1" y2="653.55" gradientUnits="userSpaceOnUse">
      <stop offset="0" stop-color="#dc9617"/>
      <stop offset=".16" stop-color="#ed8f00"/>
      <stop offset=".47" stop-color="#ffcf25"/>
      <stop offset=".59" stop-color="#ffdb3d"/>
      <stop offset=".63" stop-color="#f5c52e"/>
      <stop offset=".74" stop-color="#de940c"/>
      <stop offset=".79" stop-color="#d68100"/>
    </linearGradient>
    <linearGradient id="linear-gradient-2" x1="328.84" y1="533.88" x2="844.29" y2="248.16" gradientUnits="userSpaceOnUse">
      <stop offset="0" stop-color="#1f92f1"/>
      <stop offset=".32" stop-color="#0950f5"/>
      <stop offset=".68" stop-color="#1f92f1"/>
      <stop offset=".93" stop-color="#0950f5"/>
      <stop offset="1" stop-color="#0950f5"/>
    </linearGradient>
    <clipPath id="clippath">
      <path class="cls-5" d="M266.44,199.86c20.01,8.03,90.56,33.47,172.53,5.86,56.41-19,91.35-54.08,106.99-72.05,14.25,16.07,55.96,58.89,126.08,75.96,69.47,16.91,125.7-1.46,145.84-9.11,3.54,77.93,3.67,310.87-160.21,488.43-36.36,39.4-74.96,69.74-111.71,93.2-28.54-17.54-56.77-38.46-83.75-63.42-184-170.28-196.18-424.09-195.77-518.86Z"/>
    </clipPath>
    <linearGradient id="linear-gradient-3" x1="143.78" y1="792.77" x2="226.74" y2="936.46" gradientUnits="userSpaceOnUse">
      <stop offset="0" stop-color="#c27d02"/>
      <stop offset="0" stop-color="#b8750f"/>
      <stop offset=".42" stop-color="#dfaf04"/>
      <stop offset=".57" stop-color="#d2ac00"/>
      <stop offset="1" stop-color="#b8750f"/>
    </linearGradient>
    <linearGradient id="linear-gradient-4" x1="65.55" y1="851.77" x2="153.26" y2="925.37" gradientUnits="userSpaceOnUse">
      <stop offset="0" stop-color="#eaaf05"/>
      <stop offset="0" stop-color="#e3b007"/>
      <stop offset=".32" stop-color="#f3e91f"/>
      <stop offset=".68" stop-color="#d7a202"/>
      <stop offset="1" stop-color="#f3f32a"/>
    </linearGradient>
    <linearGradient id="linear-gradient-5" x1="866.78" y1="936.46" x2="949.74" y2="792.77" xlink:href="#linear-gradient-3"/>
    <linearGradient id="linear-gradient-6" x1="225.34" y1="935.74" x2="868.19" y2="935.74" gradientUnits="userSpaceOnUse">
      <stop offset="0" stop-color="#eaaf05"/>
      <stop offset=".07" stop-color="#e3b007"/>
      <stop offset=".12" stop-color="#e7bb10"/>
      <stop offset=".37" stop-color="#f8e534"/>
      <stop offset=".5" stop-color="#fff643"/>
      <stop offset=".74" stop-color="#d7a202"/>
      <stop offset=".98" stop-color="#ffff14"/>
    </linearGradient>
    <linearGradient id="linear-gradient-7" x1="943.76" y1="927" x2="1045.38" y2="868.33" xlink:href="#linear-gradient-4"/>
  </defs>
  <g>
    <path class="cls-1" d="M219.64,120.8c13.16,7.54,107.41,59.43,212.1,18.48,65.96-25.8,101.27-74.84,114-94.68,11.1,16.72,53.74,76.56,136.04,100.16,97.03,27.82,175.84-15.77,190.05-23.97,8.44,89.38,26.62,399.79-183.7,631.6-45.94,50.63-95.27,89.24-142.4,118.8-42.32-25.48-77.49-53.23-106.75-80.84C204.25,568.83,212.85,226.69,219.64,120.8Z"/>
    <path class="cls-11" d="M545.92,831.62l-3.5-2.13c-34.46-20.97-66.63-45.33-95.6-72.4-90.1-84.2-152.35-196.3-185.01-333.21-19.57-82.06-27.91-169.99-24.76-261.35l.36-10.61,9.36,5.01c11.5,6.16,57.27,28.51,115.16,28.51,25.14,0,52.55-4.21,80.45-15.8,49.69-20.63,80.71-55.66,97.99-81.42l5.32-7.92,5.55,7.76c16.78,23.48,54.3,65.91,117.12,86.25,79.19,25.64,147.16-.07,172.71-12.31l8.8-4.22.64,9.74c5.25,79.56.21,157.93-14.97,232.95-25.73,127.11-79.13,235.66-158.72,322.63-37.05,40.49-79.93,76.26-127.43,106.32l-3.46,2.19ZM249.95,173.29c-3.52,144.17,20.15,400.58,205.89,574.14,27.33,25.54,57.58,48.61,89.95,68.62,45.13-28.97,85.92-63.23,121.28-101.87,163.25-178.39,177.88-408.72,170.83-536.26-31.85,13.59-97.85,33.49-173.62,8.96-60.22-19.5-98.43-58.16-118.25-83.69-19.07,26.23-50.61,58.73-98.58,78.65-42.35,17.59-88.15,21.54-136.14,11.76-26.8-5.46-48.38-14.2-61.35-20.31Z"/>
    <path class="cls-8" d="M266.44,199.86c20.01,8.03,90.56,33.47,172.53,5.86,56.41-19,91.35-54.08,106.99-72.05,14.25,16.07,55.96,58.89,126.08,75.96,69.47,16.91,125.7-1.46,145.84-9.11,3.54,77.93,3.67,310.87-160.21,488.43-36.36,39.4-74.96,69.74-111.71,93.2-28.54-17.54-56.77-38.46-83.75-63.42-184-170.28-196.18-424.09-195.77-518.86Z"/>
    <path class="cls-13" d="M561.99,576.96l8.68-27.73c1.05-3.35,5.88-3.08,6.54.37l5.54,28.52c.81,4.16,5.18,6.57,9.13,5.04l27.09-10.5c3.27-1.27,6.07,2.67,3.79,5.34l-18.85,22.11c-2.75,3.22-1.91,8.15,1.75,10.28l25.1,14.63c3.03,1.77,1.7,6.41-1.81,6.3l-29.04-.95c-4.23-.14-7.56,3.59-6.95,7.78l4.21,28.75c.51,3.47-3.96,5.32-6.05,2.51l-17.36-23.3c-2.53-3.4-7.52-3.67-10.41-.58l-19.85,21.22c-2.4,2.56-6.63.23-5.74-3.17l7.39-28.1c1.08-4.1-1.81-8.17-6.04-8.5l-28.96-2.29c-3.5-.28-4.31-5.04-1.1-6.46l26.58-11.74c3.87-1.71,5.26-6.51,2.88-10.02l-16.27-24.07c-1.97-2.91,1.26-6.51,4.37-4.89l25.75,13.46c3.75,1.96,8.37.05,9.63-3.99Z"/>
    <path class="cls-13" d="M737.19,253.38l-1.84-1.07c-1.51-.88-1.85-2.91-.72-4.23l1.38-1.62c.94-1.1-.21-2.72-1.56-2.2l-1.99.77c-1.63.63-3.43-.36-3.76-2.08l-.41-2.09c-.28-1.42-2.26-1.53-2.7-.15l-.64,2.03c-.52,1.66-2.42,2.45-3.97,1.64l-1.89-.99c-1.28-.67-2.61.82-1.8,2.01l1.19,1.77c.98,1.45.41,3.42-1.19,4.13l-1.95.86c-1.32.58-.99,2.55.45,2.66l2.13.17c1.74.14,2.93,1.81,2.49,3.5l-.54,2.06c-.37,1.4,1.38,2.36,2.36,1.31l1.46-1.56c1.19-1.27,3.25-1.16,4.29.24l1.27,1.71c.86,1.16,2.7.4,2.49-1.03l-.31-2.11c-.25-1.73,1.12-3.26,2.86-3.2l2.13.07c1.44.05,2-1.87.75-2.59Z"/>
    <path class="cls-13" d="M712.53,305.45l-1.62-.95c-1.33-.77-1.63-2.56-.63-3.73l1.22-1.43c.83-.97-.19-2.4-1.38-1.94l-1.75.68c-1.43.56-3.02-.32-3.31-1.83l-.36-1.84c-.24-1.25-1.99-1.35-2.37-.13l-.56,1.79c-.46,1.47-2.13,2.16-3.5,1.45l-1.67-.87c-1.13-.59-2.3.72-1.58,1.77l1.05,1.56c.86,1.27.36,3.02-1.05,3.64l-1.72.76c-1.16.51-.87,2.24.4,2.34l1.87.15c1.53.12,2.58,1.6,2.19,3.09l-.48,1.82c-.32,1.23,1.21,2.08,2.08,1.15l1.28-1.37c1.05-1.12,2.86-1.02,3.78.21l1.12,1.51c.76,1.02,2.38.35,2.2-.91l-.27-1.86c-.22-1.52.98-2.87,2.52-2.82l1.88.06c1.27.04,1.76-1.64.66-2.29Z"/>
    <path class="cls-13" d="M760.79,315.94l-1.44-.84c-1.18-.69-1.45-2.28-.56-3.31l1.08-1.27c.73-.86-.17-2.13-1.22-1.72l-1.56.6c-1.27.49-2.68-.28-2.94-1.63l-.32-1.64c-.22-1.11-1.77-1.2-2.11-.12l-.5,1.59c-.41,1.3-1.9,1.92-3.11,1.29l-1.48-.77c-1-.52-2.04.64-1.41,1.58l.93,1.38c.76,1.13.32,2.68-.93,3.23l-1.53.67c-1.03.46-.77,1.99.35,2.08l1.66.13c1.36.11,2.29,1.42,1.95,2.74l-.42,1.61c-.29,1.09,1.08,1.85,1.85,1.02l1.14-1.22c.93-1,2.54-.91,3.36.19l1,1.34c.68.91,2.12.31,1.95-.81l-.24-1.65c-.2-1.35.87-2.55,2.24-2.51l1.67.05c1.13.04,1.56-1.46.58-2.03Z"/>
    <path class="cls-13" d="M748.87,378.04l-1.84-1.07c-1.51-.88-1.85-2.91-.72-4.23l1.38-1.62c.94-1.1-.21-2.72-1.56-2.2l-1.99.77c-1.63.63-3.43-.36-3.76-2.08l-.41-2.09c-.28-1.42-2.26-1.53-2.7-.15l-.64,2.03c-.52,1.66-2.42,2.45-3.97,1.64l-1.89-.99c-1.28-.67-2.61.82-1.8,2.01l1.19,1.77c.98,1.45.41,3.42-1.19,4.13l-1.95.86c-1.32.58-.99,2.55.45,2.66l2.13.17c1.74.14,2.93,1.81,2.49,3.5l-.54,2.06c-.37,1.4,1.38,2.36,2.36,1.31l1.46-1.56c1.19-1.27,3.25-1.16,4.29.24l1.27,1.71c.86,1.16,2.7.4,2.49-1.03l-.31-2.11c-.25-1.73,1.12-3.26,2.86-3.2l2.13.07c1.44.05,2-1.87.75-2.59Z"/>
    <path class="cls-13" d="M776.8,282.26l-1.55-.9c-1.26-.74-1.55-2.44-.6-3.55l1.16-1.36c.79-.92-.18-2.28-1.31-1.85l-1.67.65c-1.36.53-2.87-.31-3.15-1.74l-.34-1.76c-.23-1.19-1.9-1.28-2.26-.13l-.53,1.71c-.44,1.4-2.03,2.06-3.33,1.38l-1.59-.83c-1.07-.56-2.19.68-1.51,1.69l1,1.48c.82,1.21.34,2.87-1,3.46l-1.64.72c-1.11.49-.83,2.14.38,2.23l1.78.14c1.46.12,2.46,1.52,2.09,2.94l-.45,1.73c-.31,1.17,1.15,1.98,1.98,1.09l1.22-1.31c1-1.07,2.72-.97,3.6.2l1.07,1.43c.72.97,2.27.33,2.09-.87l-.26-1.77c-.21-1.45.94-2.73,2.4-2.69l1.79.06c1.21.04,1.67-1.57.63-2.18Z"/>
    <g class="cls-15">
      <g>
        <polygon class="cls-13" points="249.19 412.16 323.24 352.14 334.48 343.54 239.29 362.54 227.01 301.03 321.28 282.22 308.53 278.41 217.11 251.41 213.4 232.85 254.63 224.62 380.28 262.03 368.28 201.94 439.39 187.75 451.38 247.83 553.02 165.07 594.16 156.86 597.87 175.47 523.92 235.42 512 244.14 607.77 225.03 620.04 286.53 525.08 305.49 538.63 309.13 629.93 336.1 633.59 354.41 591.88 362.73 466.88 325.51 478.81 385.3 407.71 399.49 395.78 339.72 294.67 422.05 252.83 430.4 249.19 412.16"/>
        <polygon class="cls-12" points="406.76 314.83 236.71 348.77 229.86 314.46 399.91 280.52 383.62 198.89 423.69 190.9 439.98 272.52 610.48 238.49 617.33 272.81 446.83 306.84 463.11 388.43 423.05 396.42 406.76 314.83"/>
        <polygon class="cls-12" points="360.75 272.22 217.22 230.26 220.41 246.26 329.78 278.4 360.75 272.22"/>
        <polygon class="cls-12" points="223.26 243.66 221.53 234.96 346.9 271.61 329.93 275 223.26 243.66"/>
        <polygon class="cls-12" points="484.97 315 628.49 356.96 625.3 340.96 515.94 308.82 484.97 315"/>
        <polygon class="cls-12" points="498.81 315.61 515.79 312.22 622.45 343.56 624.19 352.26 498.81 315.61"/>
        <polygon class="cls-12" points="358.69 340.55 243.01 434.21 273.24 428.21 384.93 338.19 384.38 335.43 358.69 340.55"/>
        <polygon class="cls-12" points="360.14 343.63 377.11 340.25 271.8 425.13 255.48 428.37 360.14 343.63"/>
        <polygon class="cls-12" points="601.95 153.06 572.88 158.86 460.4 249.51 460.86 251.81 487.43 246.51 601.95 153.06"/>
        <polygon class="cls-12" points="574.33 161.94 589.58 158.9 485.98 243.43 469.01 246.82 574.33 161.94"/>
      </g>
    </g>
  </g>
  <path class="cls-10" d="M266.24,822.32s-12.56-42.06-53.22-5.08c-40.65,36.98-48.52-10.85-69.5-15.22-20.98-4.36-29.51,9.42-29.51,20.29s-15.08,54.38,0,102.97c0,0,16.39-36.46,43.28-6.27,26.88,30.19,51.51,23.46,68.05,0,16.54-23.46,31.62,0,31.62,0,0,0,12.67-72.05,9.29-96.7Z"/>
  <path class="cls-6" d="M231.23,836.09s2.77-11.6,11.3-5.08c8.52,6.53,22.51,10.15,23.71-8.7,0,0,15.84,40.61,0,64.54-15.84,23.93-42.37-27.55-35.01-50.76Z"/>
  <path class="cls-7" d="M114.01,822.32s1.97,14.5,15.74,6.53c13.77-7.98,16.39,7.25,16.39,13.05s7.87,80.49-9.18,91.37c-17.05,10.88-41.31-10.15-41.31-29.73s18.36-81.21,18.36-81.21Z"/>
  <path class="cls-14" d="M146.14,841.89c-1.35,2.58-3.77,6.2-7.87,7.83-11.33,4.5-21.2-11.81-38.53-13.19-15.46-1.23-28.05,10.28-33.85,15.63-23.77,21.88-21.28,54.99-20.83,59.9,12.28-16.56,31.46-22.8,45.22-16.68,6.59,2.94,14.55,9.88,16.41,19.28,2.46,12.43-7.62,19.76-4.34,25.17,4.44,7.33,30,5.62,43.8-6.57,18.62-16.45,19.37-53.46,0-91.37Z"/>
  <path class="cls-4" d="M827.28,822.32s12.56-42.06,53.22-5.08c40.65,36.98,48.52-10.85,69.5-15.22,20.98-4.36,29.51,9.42,29.51,20.29s15.08,54.38,0,102.97c0,0-16.39-36.46-43.28-6.27-26.88,30.19-51.51,23.46-68.05,0-16.54-23.46-31.62,0-31.62,0,0,0-12.67-72.05-9.29-96.7Z"/>
  <path class="cls-6" d="M862.29,836.09s-2.77-11.6-11.3-5.08c-8.52,6.53-22.51,10.15-23.71-8.7,0,0-15.84,40.61,0,64.54,15.84,23.93,42.37-27.55,35.01-50.76Z"/>
  <path class="cls-3" d="M862.29,836.09c-7.08,9.09-17.96,21.74-32.92,34.44-36.88,31.31-74.74,42.68-108.33,50.2-162.4,36.36-323.13,4.59-345.38,0-32.69-6.75-72.66-17.32-111.51-50.2-15.06-12.74-25.94-25.45-32.92-34.44,0,0-13.26,50.35,0,107.84,0,0,.35,6.07,4.64,13.41,8.5,14.55,44.41,34.67,58.01,40.65,27.21,11.95,38.39,15.93,78.64,25.17,54.44,12.51,187.22,19.71,362.65,0,22.53-4.35,58.85-15.13,94.2-44.79,13.65-11.45,24.47-23.47,32.92-34.44,13.26-57.49,0-107.84,0-107.84Z"/>
  <g>
    <path class="cls-2" d="M297.78,965.39c-.12.6-.24,1.06-.36,1.38-.12.32-.3.51-.54.57-.24.06-.56,0-.98-.19-.41-.19-.96-.47-1.65-.86-.72-.4-1.27-.73-1.66-.98-.39-.25-.67-.46-.85-.64-.18-.18-.27-.35-.29-.51-.02-.16,0-.35.04-.56l1.25-6.51-10.24-5.77-4.73,4.36c-.17.17-.33.29-.5.37s-.37.1-.62.07c-.25-.04-.57-.15-.95-.33-.39-.18-.88-.44-1.49-.78-.65-.36-1.14-.67-1.48-.92-.34-.25-.54-.49-.59-.73-.05-.24.03-.5.24-.77.21-.27.54-.6.98-1l22.05-19.46c.22-.19.43-.33.62-.41.2-.08.44-.1.73-.03.29.06.66.2,1.11.43.45.22,1.03.54,1.75.94.83.47,1.48.85,1.96,1.15.48.3.84.56,1.07.8.23.23.36.46.39.68.03.22.02.49-.05.8l-5.2,28.93ZM296.53,938.33h-.02s-10.39,9.4-10.39,9.4l7.74,4.36,2.68-13.76Z"/>
    <path class="cls-2" d="M321.91,977.09c-.06.15-.15.26-.27.35s-.29.12-.51.12c-.22,0-.49-.05-.81-.13-.32-.09-.71-.23-1.18-.42-.49-.2-.88-.38-1.18-.55s-.51-.32-.66-.47-.24-.29-.27-.43c-.03-.14-.01-.29.05-.44l.94-2.31c-1.59.74-3.08,1.18-4.47,1.31-1.39.13-2.69-.05-3.91-.56-1.37-.56-2.44-1.26-3.19-2.09-.75-.83-1.25-1.75-1.51-2.76s-.3-2.08-.13-3.2c.17-1.12.57-2.45,1.19-3.97l5-12.23c.06-.15.16-.26.28-.34.13-.08.31-.11.56-.1.25.01.56.08.94.19.38.11.84.28,1.38.5.55.23,1,.43,1.34.62.34.18.61.36.79.52.18.16.3.32.34.47.04.15.03.3-.03.45l-4.62,11.29c-.43,1.05-.69,1.87-.78,2.48-.09.61-.08,1.17.03,1.67.11.51.34.96.68,1.35.34.39.79.7,1.36.93.72.29,1.54.33,2.48.1.94-.23,2.02-.67,3.25-1.34l5.43-13.28c.06-.15.15-.26.28-.34.13-.08.31-.11.56-.1.25.01.56.08.93.18.37.11.84.28,1.39.5.55.23,1,.43,1.34.61.34.18.6.36.78.52.18.16.29.31.33.46.04.15.04.3-.03.45l-8.17,19.98Z"/>
    <path class="cls-2" d="M345.28,978.66c-.39,1.16-.94,2.12-1.67,2.86-.73.74-1.59,1.28-2.59,1.62-.99.33-2.08.47-3.27.41-1.19-.06-2.41-.3-3.69-.72-.77-.25-1.48-.55-2.14-.9-.66-.35-1.23-.7-1.73-1.06-.49-.36-.89-.69-1.2-1-.31-.31-.52-.57-.63-.78-.12-.22-.16-.51-.14-.89.02-.38.15-.9.37-1.57.15-.44.28-.8.4-1.05.12-.26.24-.46.35-.6.11-.14.23-.22.34-.25s.23-.01.37.03c.17.06.38.23.65.53s.61.65,1.02,1.04c.41.39.91.8,1.5,1.21.58.41,1.29.76,2.12,1.03.52.17,1,.27,1.44.3.44.03.84,0,1.21-.11.36-.1.68-.28.93-.53.25-.25.45-.58.58-.98.15-.46.14-.9-.03-1.32-.18-.42-.45-.84-.84-1.23-.39-.4-.84-.8-1.36-1.21-.52-.41-1.04-.85-1.58-1.31-.53-.47-1.04-.96-1.52-1.5-.48-.53-.87-1.12-1.18-1.76-.31-.65-.49-1.36-.54-2.14-.05-.78.08-1.66.4-2.62.33-.98.81-1.82,1.47-2.51.65-.69,1.44-1.21,2.35-1.55.91-.34,1.94-.51,3.08-.49,1.14.02,2.35.24,3.64.67.64.21,1.25.47,1.83.76.58.29,1.08.59,1.53.89.44.3.81.59,1.09.86.28.27.48.49.59.65.11.16.17.31.2.45.02.13.02.29,0,.46-.02.17-.06.38-.12.63-.06.25-.14.54-.26.89-.14.41-.26.75-.37,1-.11.25-.22.45-.32.58-.1.14-.21.21-.32.24s-.23.01-.35-.03c-.14-.04-.33-.2-.56-.45-.24-.26-.54-.55-.92-.88-.38-.33-.82-.67-1.35-1.02-.52-.35-1.15-.65-1.88-.89-.52-.17-.99-.27-1.41-.29-.42-.02-.78.03-1.09.15-.31.12-.57.29-.78.52-.21.23-.37.49-.47.8-.16.47-.14.92.04,1.34.18.42.47.83.87,1.23.39.4.86.81,1.39,1.23.53.41,1.07.85,1.6,1.31.54.46,1.05.96,1.55,1.49.49.54.9,1.13,1.21,1.78.31.65.5,1.36.57,2.14s-.06,1.63-.36,2.57Z"/>
    <path class="cls-2" d="M386.34,972.51c-.04.17-.11.38-.22.62-.1.24-.27.58-.51,1.03l-9.95,17.76c-.14.25-.29.44-.45.58-.16.14-.39.22-.67.26-.28.03-.66.01-1.15-.06-.49-.08-1.12-.2-1.89-.38-.77-.18-1.4-.34-1.87-.49-.48-.15-.85-.3-1.1-.46-.25-.16-.43-.33-.51-.53-.09-.19-.13-.42-.14-.69l-.62-13.59v-.22s-.09.2-.09.2l-6.17,12.04c-.13.25-.26.45-.42.59-.15.14-.39.22-.69.25-.3.03-.7,0-1.2-.07-.5-.08-1.13-.21-1.9-.38-.79-.18-1.41-.34-1.89-.49-.47-.15-.83-.3-1.09-.46-.25-.16-.43-.33-.51-.53-.09-.19-.14-.42-.14-.69l-1.23-20.31c-.04-.49-.05-.87-.03-1.14.02-.27.05-.49.09-.66.04-.16.11-.29.22-.38.11-.1.29-.16.54-.18.24-.02.56,0,.96.06.39.06.88.15,1.46.28.63.14,1.14.28,1.52.4.39.12.68.25.88.37.2.13.33.27.39.42.06.15.09.33.09.53l.65,16.4-.02.29.11-.27,7.44-14.56c.09-.18.2-.32.33-.43.13-.11.31-.18.53-.21.22-.03.52-.02.9.03.38.05.86.15,1.44.28.58.13,1.05.26,1.4.38.35.12.63.24.82.36.2.12.32.25.38.39.06.14.1.29.11.46l.65,16.53v.28s.12-.27.12-.27l7.53-14.54c.07-.18.17-.33.3-.44.13-.11.31-.18.55-.21.24-.03.55-.01.93.04.38.05.87.15,1.45.28.58.13,1.05.26,1.42.37.36.12.64.23.84.35.2.12.32.25.37.38.05.14.06.28.02.44Z"/>
    <path class="cls-2" d="M391.68,995.39c-.03.16-.1.29-.22.39-.12.1-.3.17-.54.2-.25.04-.56.04-.95,0-.39-.03-.87-.11-1.46-.22-.59-.11-1.07-.23-1.44-.34-.37-.11-.67-.23-.88-.35-.21-.12-.36-.25-.43-.39-.07-.14-.09-.29-.06-.44l4.08-21.14c.03-.16.1-.29.22-.39.12-.1.3-.17.55-.21.25-.04.56-.05.95-.03.39.03.88.1,1.46.21.58.11,1.06.23,1.43.35.37.12.66.25.88.38.21.13.35.27.43.4.07.14.09.28.06.44l-4.08,21.14ZM397.61,967.12c-.23,1.2-.64,1.99-1.22,2.35-.58.37-1.53.42-2.87.16-1.35-.26-2.21-.66-2.59-1.19-.38-.53-.46-1.38-.24-2.54.23-1.2.63-1.99,1.21-2.37.57-.37,1.53-.43,2.88-.17,1.33.26,2.19.66,2.58,1.2.39.54.47,1.39.25,2.55Z"/>
    <path class="cls-2" d="M419.27,999.31c-.02.18-.08.32-.18.43-.1.11-.24.19-.45.25-.2.05-.47.08-.8.07-.33,0-.74-.05-1.22-.1-.51-.06-.93-.13-1.24-.21-.32-.07-.57-.16-.76-.27-.19-.11-.32-.22-.39-.35-.07-.13-.1-.28-.08-.46l.3-2.38c-1.25,1.05-2.53,1.82-3.82,2.32-1.29.5-2.67.66-4.15.48-1.63-.21-2.97-.7-4.02-1.47-1.05-.77-1.86-1.74-2.44-2.9-.58-1.16-.94-2.48-1.07-3.95-.14-1.47-.11-3,.09-4.59.24-1.9.66-3.59,1.26-5.06.6-1.47,1.36-2.69,2.28-3.66.92-.97,2-1.67,3.24-2.1,1.24-.43,2.62-.55,4.14-.36,1.2.15,2.26.53,3.17,1.14.91.61,1.79,1.45,2.63,2.52l1.46-11.6c.02-.16.08-.3.19-.42.1-.12.28-.2.52-.26.24-.06.56-.09.95-.09.39,0,.88.04,1.47.11.59.07,1.08.16,1.45.26.38.1.67.2.89.32.21.12.36.24.44.39.08.14.11.29.09.45l-3.97,31.5ZM415.07,984.24c-.73-1.2-1.45-2.13-2.17-2.81-.72-.68-1.51-1.07-2.38-1.18-.78-.1-1.49.01-2.1.33-.62.32-1.14.79-1.57,1.4s-.77,1.31-1.04,2.1c-.27.79-.46,1.6-.57,2.45-.11.9-.15,1.78-.11,2.64.04.87.18,1.65.42,2.36s.61,1.29,1.11,1.76c.49.47,1.16.76,1.99.86.42.05.83.04,1.23-.03s.83-.22,1.28-.44c.44-.22.91-.52,1.39-.91s1.03-.87,1.62-1.44l.9-7.11Z"/>
    <path class="cls-2" d="M447.07,990.06c-.06.74-.26,1.27-.62,1.6-.36.33-.82.47-1.4.43l-13.1-.99c-.07.92-.02,1.76.14,2.52.16.77.46,1.43.89,1.99.43.56,1.02,1,1.74,1.33.73.33,1.61.53,2.66.61,1.06.08,2,.08,2.82-.02.82-.09,1.53-.21,2.13-.35.6-.14,1.1-.27,1.5-.4.4-.12.72-.18.96-.16.14.01.26.05.36.11s.16.17.22.32c.05.15.08.36.09.62,0,.27,0,.6-.04,1-.03.35-.06.65-.09.9-.03.25-.08.46-.12.63-.05.18-.11.32-.18.44-.07.12-.17.23-.28.33-.11.1-.41.24-.89.39-.48.16-1.09.3-1.83.43-.74.13-1.58.23-2.52.29-.94.07-1.95.06-3.01-.02-1.91-.15-3.57-.51-4.98-1.1-1.4-.59-2.55-1.41-3.44-2.47-.89-1.05-1.52-2.35-1.88-3.88-.36-1.53-.47-3.3-.31-5.31.15-1.91.53-3.62,1.14-5.12.62-1.5,1.44-2.75,2.47-3.74,1.03-1,2.24-1.73,3.65-2.19,1.4-.46,2.96-.63,4.66-.5,1.8.14,3.32.52,4.56,1.15,1.24.63,2.23,1.44,2.98,2.45.75,1,1.27,2.16,1.56,3.48s.38,2.73.26,4.24l-.07.97ZM441.32,987.88c.18-1.7-.06-3.07-.72-4.1-.66-1.03-1.75-1.6-3.28-1.72-.77-.06-1.45.04-2.05.28-.59.25-1.1.6-1.51,1.06s-.75,1.02-1,1.67c-.25.65-.42,1.36-.51,2.11l9.07.69Z"/>
    <path class="cls-2" d="M484.63,975.06c-.01.47-.05.87-.1,1.2-.05.33-.12.59-.21.79-.09.2-.19.34-.32.44-.12.09-.26.14-.4.13l-7.83-.25-.8,25.22c0,.16-.06.3-.17.43s-.29.23-.53.3c-.24.07-.57.13-.99.16s-.93.04-1.54.02c-.61-.02-1.12-.06-1.53-.12-.41-.06-.73-.14-.97-.22-.24-.09-.41-.2-.51-.33-.1-.13-.15-.28-.14-.44l.8-25.22-7.84-.25c-.16,0-.3-.06-.41-.16-.11-.1-.2-.25-.28-.46-.08-.2-.13-.47-.16-.8-.03-.33-.04-.73-.02-1.2.02-.48.05-.9.1-1.23.05-.34.12-.61.21-.8.09-.2.19-.34.3-.43.12-.08.25-.13.42-.12l22.05.7c.15,0,.28.05.4.15.12.09.21.24.29.44s.13.48.16.82c.03.34.04.75.02,1.24Z"/>
    <path class="cls-2" d="M498.54,983.51c0,.58-.03,1.06-.07,1.43s-.09.66-.16.87c-.07.21-.15.35-.26.43-.11.08-.24.12-.4.11-.13,0-.27-.03-.43-.09s-.34-.12-.54-.19-.42-.13-.66-.19c-.24-.06-.51-.09-.8-.1-.34,0-.68.06-1.02.19-.34.13-.7.34-1.06.63-.37.29-.75.67-1.15,1.14-.4.48-.83,1.07-1.3,1.77l-.19,13.45c0,.16-.05.3-.15.42s-.27.22-.5.3c-.23.08-.55.13-.93.17-.39.04-.88.05-1.48.04-.6,0-1.09-.04-1.48-.08s-.7-.11-.93-.2c-.23-.08-.4-.19-.49-.31-.1-.12-.14-.26-.14-.42l.31-21.58c0-.16.04-.3.13-.42s.23-.22.44-.3c.21-.08.48-.13.81-.17.33-.04.75-.05,1.25-.04.52,0,.94.03,1.28.08.34.05.6.11.78.19.18.08.32.19.4.31.08.12.12.26.12.42l-.04,2.69c.58-.8,1.12-1.45,1.63-1.97.51-.52.99-.93,1.45-1.23.46-.3.91-.51,1.36-.62.45-.11.91-.17,1.36-.16.21,0,.43.02.68.05.24.03.49.07.75.13.26.06.48.13.68.2s.33.15.42.24c.09.08.15.17.19.27.04.1.07.23.1.4.03.17.05.43.06.76s.01.8,0,1.38Z"/>
    <path class="cls-2" d="M519.17,1003.13c0,.23-.08.4-.24.53-.16.13-.42.22-.76.28-.35.06-.86.09-1.54.09-.73,0-1.25-.03-1.59-.08-.33-.06-.56-.15-.7-.28-.14-.13-.21-.31-.21-.53v-1.72c-.89.95-1.9,1.7-3.03,2.23-1.14.54-2.4.8-3.78.81-1.15,0-2.2-.14-3.16-.44-.96-.3-1.79-.74-2.5-1.33-.7-.59-1.25-1.32-1.64-2.19-.39-.87-.58-1.89-.59-3.05,0-1.26.24-2.35.73-3.28.49-.93,1.22-1.7,2.2-2.3.97-.61,2.19-1.06,3.64-1.35,1.45-.29,3.14-.44,5.06-.45h2.1s0-1.31,0-1.31c0-.68-.07-1.27-.21-1.78-.14-.51-.36-.93-.68-1.27-.32-.34-.74-.59-1.26-.75-.53-.16-1.18-.24-1.95-.24-1.02,0-1.92.12-2.72.34-.8.23-1.5.48-2.12.75-.61.28-1.12.53-1.54.75-.41.23-.74.34-1,.34-.18,0-.34-.06-.47-.17-.14-.11-.25-.27-.34-.48-.09-.21-.16-.47-.21-.77-.05-.31-.07-.64-.08-1.02,0-.5.04-.9.12-1.19.08-.29.23-.55.46-.79.23-.23.62-.49,1.18-.78.56-.28,1.22-.55,1.98-.79.76-.24,1.58-.44,2.48-.6.89-.15,1.82-.23,2.77-.24,1.69,0,3.14.16,4.34.49,1.2.33,2.19.83,2.97,1.52.78.68,1.34,1.57,1.7,2.65.36,1.08.54,2.36.54,3.85l.03,14.52ZM513.17,993.9h-2.32c-.98,0-1.82.08-2.52.23-.69.15-1.26.37-1.69.66-.43.29-.75.64-.95,1.05-.2.41-.3.88-.3,1.42,0,.9.29,1.61.86,2.13.57.52,1.37.77,2.38.77.85,0,1.64-.22,2.36-.66.72-.44,1.44-1.08,2.19-1.92v-3.68Z"/>
    <path class="cls-2" d="M531.21,973.97c.02,1.23-.22,2.08-.71,2.55-.49.48-1.42.73-2.77.75-1.37.02-2.3-.19-2.78-.63-.48-.44-.73-1.25-.75-2.43-.02-1.23.21-2.08.7-2.56.48-.48,1.41-.74,2.78-.76,1.35-.02,2.28.19,2.77.65.49.45.75,1.27.76,2.44ZM531.21,1002.86c0,.16-.04.3-.14.43s-.26.23-.49.31c-.23.08-.54.15-.93.2-.39.05-.88.08-1.47.08-.6,0-1.09,0-1.48-.04-.39-.03-.7-.09-.93-.17s-.4-.18-.5-.29c-.1-.12-.15-.26-.15-.42l-.34-21.53c0-.16.04-.3.14-.43.1-.12.26-.23.49-.32.23-.09.54-.17.93-.22.39-.05.88-.09,1.47-.1.6,0,1.09,0,1.48.05.39.04.7.11.94.19s.4.19.5.31c.1.12.15.26.15.42l.34,21.53Z"/>
    <path class="cls-2" d="M557.76,1002.17c0,.16-.04.3-.13.43-.09.12-.25.23-.47.32-.22.09-.53.16-.93.21-.39.05-.88.09-1.46.1-.6.02-1.09.01-1.49-.02-.4-.03-.71-.08-.94-.15-.23-.07-.39-.17-.49-.29-.1-.12-.15-.26-.16-.42l-.36-12.31c-.03-1.05-.13-1.87-.3-2.46-.17-.59-.41-1.1-.71-1.52s-.69-.74-1.15-.96c-.47-.22-1.01-.32-1.62-.3-.77.02-1.55.33-2.32.92-.77.59-1.57,1.43-2.4,2.54l.42,14.34c0,.16-.04.3-.13.43-.09.12-.26.23-.49.32-.23.09-.54.16-.93.21-.39.05-.88.09-1.47.1-.6.02-1.09.01-1.48-.02-.39-.03-.7-.08-.94-.15-.24-.07-.4-.17-.5-.29-.1-.12-.15-.26-.16-.42l-.63-21.57c0-.16.03-.3.11-.43.08-.12.22-.23.43-.32.21-.09.47-.15.8-.2.33-.05.74-.08,1.24-.1.52-.01.94,0,1.28.02.34.03.6.08.79.16.19.08.32.17.41.29s.13.26.13.42l.07,2.49c1.16-1.33,2.34-2.33,3.56-3.01,1.21-.68,2.49-1.04,3.83-1.08,1.47-.04,2.71.16,3.73.62,1.02.45,1.86,1.09,2.5,1.9.65.81,1.12,1.77,1.43,2.87.31,1.1.48,2.44.53,4l.39,13.33Z"/>
    <path class="cls-2" d="M568.96,972.78c.05,1.23-.16,2.08-.64,2.57-.48.49-1.4.76-2.75.82-1.37.06-2.3-.13-2.8-.56-.49-.43-.77-1.24-.82-2.41-.05-1.22.16-2.08.63-2.58.47-.5,1.39-.77,2.76-.83,1.35-.06,2.28.14,2.79.57.5.44.78,1.25.83,2.42ZM569.71,1001.66c0,.16-.04.3-.13.43-.09.13-.25.23-.48.32-.23.09-.54.16-.92.22-.39.06-.88.1-1.47.12-.6.03-1.09.03-1.48,0s-.7-.07-.94-.14c-.24-.07-.4-.16-.51-.28-.1-.12-.15-.26-.16-.42l-.9-21.51c0-.16.04-.3.13-.43.09-.13.25-.24.48-.33.23-.1.54-.18.92-.25s.88-.11,1.47-.13c.6-.03,1.09-.02,1.48.01.39.03.7.09.94.17.24.08.41.18.51.29.1.12.16.26.16.42l.9,21.52Z"/>
    <path class="cls-2" d="M596.26,1000.31c0,.16-.03.3-.12.43-.09.13-.25.24-.47.33-.22.09-.53.17-.92.23-.39.06-.88.11-1.46.14-.6.03-1.09.04-1.49.02s-.71-.06-.94-.13-.4-.16-.5-.28c-.1-.12-.16-.25-.17-.42l-.66-12.3c-.06-1.05-.18-1.86-.36-2.45-.19-.59-.43-1.09-.75-1.5-.31-.41-.7-.72-1.18-.93-.47-.21-1.01-.3-1.63-.26-.77.04-1.54.37-2.3.97-.76.61-1.54,1.47-2.33,2.6l.77,14.33c0,.16-.03.3-.12.43-.09.13-.25.24-.48.33-.23.09-.54.17-.92.23-.38.06-.87.11-1.47.14-.6.03-1.09.04-1.48.02-.39-.02-.7-.06-.94-.13-.24-.07-.41-.16-.51-.28-.1-.12-.16-.25-.17-.42l-1.16-21.55c0-.16.02-.3.1-.43.07-.13.21-.23.42-.33.2-.09.47-.17.8-.23.33-.06.74-.1,1.24-.13.52-.03.94-.03,1.28,0,.34.02.6.07.8.14.19.07.33.16.41.28.09.12.13.26.14.42l.13,2.49c1.12-1.35,2.28-2.38,3.48-3.1,1.2-.71,2.46-1.1,3.8-1.17,1.46-.08,2.71.1,3.75.53,1.03.43,1.88,1.04,2.55,1.84.66.8,1.16,1.74,1.5,2.84.33,1.1.54,2.43.63,3.99l.72,13.31Z"/>
    <path class="cls-2" d="M620.16,978.58c.05.77,0,1.35-.15,1.73-.15.38-.36.58-.61.6l-2.54.17c.38.36.66.78.85,1.26.19.48.3.99.33,1.52.09,1.25-.05,2.38-.4,3.39-.35,1-.9,1.86-1.63,2.58-.73.72-1.64,1.29-2.72,1.71-1.08.42-2.29.68-3.65.77-.69.05-1.36,0-2-.12-.64-.13-1.14-.29-1.49-.49-.18.22-.33.48-.47.78-.13.3-.19.63-.16.98.03.47.26.84.69,1.1.43.27,1.02.4,1.76.38l5.25-.16c1.23-.03,2.33.06,3.31.3s1.81.6,2.5,1.09c.69.5,1.23,1.11,1.63,1.84.4.73.63,1.58.7,2.55.07,1.06-.09,2.08-.5,3.05-.4.97-1.05,1.84-1.93,2.59-.89.76-2.02,1.38-3.4,1.88-1.38.5-3.01.81-4.89.94-1.83.13-3.41.09-4.73-.11s-2.41-.53-3.27-.99c-.86-.46-1.51-1.03-1.94-1.72-.43-.69-.67-1.46-.73-2.32-.04-.53,0-1.04.1-1.54.1-.49.27-.97.51-1.43.24-.46.53-.91.89-1.33s.78-.85,1.25-1.25c-.72-.32-1.29-.79-1.71-1.4-.42-.61-.66-1.29-.71-2.05-.07-.95.09-1.83.47-2.64.38-.81.9-1.55,1.55-2.23-.6-.52-1.1-1.17-1.49-1.93-.39-.77-.63-1.74-.71-2.91-.08-1.25.06-2.39.43-3.41.38-1.02.93-1.9,1.68-2.64.74-.74,1.65-1.32,2.72-1.76,1.07-.44,2.26-.7,3.58-.79.68-.05,1.33-.05,1.95-.01.63.04,1.21.11,1.75.22l6.83-.47c.27-.02.51.14.7.49.19.34.32.93.38,1.77ZM612.71,984.21c-.08-1.16-.46-2.04-1.15-2.64-.69-.6-1.62-.86-2.79-.78-.6.04-1.11.18-1.55.41-.44.23-.79.53-1.07.9-.28.37-.47.78-.58,1.25-.11.47-.15.95-.12,1.45.07,1.1.46,1.94,1.14,2.53.69.59,1.6.85,2.74.77.61-.04,1.14-.17,1.57-.4.44-.22.79-.52,1.07-.87.28-.36.47-.76.6-1.22.12-.45.17-.92.13-1.4ZM615.31,1001.3c-.05-.72-.38-1.26-.98-1.61-.6-.35-1.42-.5-2.43-.46l-4.33.18c-.4.33-.71.65-.94.95-.23.3-.41.58-.55.85-.14.27-.22.52-.25.77-.03.24-.04.5-.02.75.05.8.5,1.39,1.35,1.75.84.36,2,.49,3.48.39.92-.06,1.68-.21,2.3-.44.62-.23,1.11-.51,1.47-.84.37-.33.62-.69.75-1.08.13-.39.19-.79.16-1.21Z"/>
    <path class="cls-2" d="M643.3,996.79c.01.16-.03.31-.12.45-.09.14-.26.26-.49.36s-.55.19-.95.27c-.4.08-.91.15-1.54.2-.61.05-1.12.07-1.54.06-.41-.01-.75-.05-.99-.11-.25-.06-.43-.15-.55-.27s-.18-.26-.19-.42l-2.49-29.46c-.01-.16.03-.31.12-.45.09-.14.26-.26.5-.36.24-.1.56-.19.96-.28.4-.08.9-.15,1.51-.2.63-.05,1.14-.07,1.55-.06.4.01.73.05.98.11.25.06.43.15.55.27s.18.26.19.42l2.49,29.46Z"/>
    <path class="cls-2" d="M670.18,994.36c.02.16-.02.3-.1.43-.08.13-.24.25-.45.35-.22.1-.52.19-.91.27-.39.08-.87.14-1.45.2-.59.06-1.09.08-1.49.08-.4,0-.71-.03-.94-.09-.23-.06-.4-.14-.51-.25s-.17-.25-.18-.41l-1.16-12.26c-.1-1.04-.25-1.86-.46-2.43-.21-.58-.48-1.07-.81-1.47-.33-.4-.73-.69-1.21-.88-.48-.19-1.03-.25-1.63-.2-.77.07-1.52.43-2.26,1.06-.73.64-1.48,1.53-2.22,2.69l1.35,14.28c.02.16-.02.31-.1.44-.08.13-.24.25-.46.35-.23.1-.53.19-.91.27-.38.08-.87.14-1.46.2-.6.06-1.09.08-1.48.08-.39,0-.7-.03-.94-.09-.24-.06-.41-.14-.52-.25s-.17-.25-.18-.41l-2.04-21.49c-.01-.16.01-.3.08-.43.07-.13.2-.24.41-.34.2-.1.46-.19.79-.26.33-.07.74-.13,1.24-.18.51-.05.94-.07,1.28-.06.34,0,.61.04.8.11.19.06.33.15.43.26.09.11.15.25.16.41l.23,2.48c1.07-1.4,2.18-2.47,3.35-3.23,1.17-.76,2.42-1.2,3.75-1.33,1.46-.14,2.72-.02,3.77.37,1.05.39,1.92.96,2.62,1.73.7.77,1.23,1.69,1.61,2.78.38,1.08.64,2.4.79,3.96l1.26,13.27Z"/>
    <path class="cls-2" d="M690.49,986.07c.13,1.22.02,2.32-.34,3.3-.36.98-.92,1.83-1.69,2.54-.77.71-1.7,1.29-2.81,1.72-1.11.43-2.32.72-3.66.86-.8.09-1.57.11-2.32.06-.74-.04-1.41-.13-2.01-.25-.6-.12-1.1-.26-1.5-.41-.41-.15-.71-.3-.9-.45-.2-.15-.36-.4-.49-.75-.13-.35-.24-.88-.32-1.58-.05-.46-.07-.84-.07-1.12,0-.28.03-.51.07-.69s.11-.3.2-.36c.09-.07.21-.11.35-.12.18-.02.45.05.81.22.37.16.82.34,1.36.52.54.19,1.16.35,1.87.48.7.14,1.49.16,2.35.07.55-.06,1.02-.17,1.44-.32.41-.16.76-.36,1.05-.6.29-.24.5-.53.63-.87.13-.34.17-.71.12-1.13-.05-.48-.24-.88-.58-1.19-.33-.31-.76-.57-1.28-.78-.52-.2-1.1-.39-1.74-.54-.64-.16-1.3-.34-1.98-.54-.68-.2-1.35-.45-2-.74-.66-.29-1.25-.66-1.8-1.12-.54-.46-1-1.04-1.38-1.73-.37-.69-.61-1.54-.72-2.55-.11-1.03,0-1.99.3-2.89.31-.9.81-1.7,1.5-2.39.69-.69,1.56-1.26,2.6-1.71,1.05-.45,2.24-.75,3.59-.89.67-.07,1.33-.09,1.98-.07s1.23.09,1.76.18c.53.09.98.2,1.35.33s.64.25.8.35.29.21.36.33c.08.11.14.25.19.42.05.16.1.37.15.62.05.25.1.55.13.92.05.43.07.79.08,1.06s-.01.5-.05.66c-.04.17-.1.28-.19.35-.09.07-.2.11-.33.12-.14.02-.38-.04-.7-.18-.32-.14-.72-.28-1.2-.42s-1.03-.27-1.65-.37-1.31-.12-2.08-.03c-.55.06-1.01.17-1.4.32s-.7.35-.93.59c-.23.24-.4.5-.5.79-.1.3-.13.6-.1.92.05.5.25.9.59,1.2.34.3.77.56,1.3.76.52.2,1.12.38,1.77.54.66.16,1.33.33,2,.53.68.2,1.35.44,2.02.72.67.28,1.28.66,1.83,1.12.55.46,1.02,1.03,1.4,1.71.38.68.62,1.51.73,2.49Z"/>
    <path class="cls-2" d="M713.3,966.98c.67-.08,1.16,0,1.46.27.3.26.48.66.55,1.2l2.44,20.57c.02.16-.01.31-.1.44-.08.13-.23.25-.44.36s-.52.2-.9.29c-.39.09-.87.16-1.45.23-.59.07-1.09.11-1.48.12-.4,0-.71-.02-.95-.07-.23-.05-.41-.13-.52-.24-.11-.11-.18-.24-.19-.4l-2.06-17.35-9.63,1.14,1.19,10.07c.14,1.17.43,2.02.86,2.57.44.54,1.13.75,2.07.64.32-.04.61-.1.85-.19.25-.09.47-.18.66-.27.19-.1.35-.18.48-.25.13-.07.25-.11.36-.13.1-.01.19,0,.29.05.1.05.18.15.24.31.07.16.14.39.21.67.07.28.14.65.19,1.1.08.7.11,1.24.07,1.61-.04.37-.12.65-.24.83-.12.19-.32.35-.6.51-.27.15-.59.3-.96.43-.37.13-.77.25-1.2.35-.44.1-.88.18-1.33.23-1.2.14-2.26.11-3.18-.09-.92-.2-1.7-.58-2.35-1.15-.65-.56-1.17-1.31-1.56-2.24-.39-.93-.66-2.05-.81-3.36l-1.3-10.98-2.57.3c-.3.04-.56-.12-.76-.48-.21-.36-.36-.98-.46-1.86-.05-.46-.08-.86-.08-1.18,0-.33.03-.58.09-.78.06-.19.14-.34.25-.43.11-.09.25-.15.41-.17l2.55-.3-.57-4.78c-.02-.16,0-.31.08-.45.07-.14.22-.27.44-.38.22-.12.53-.22.91-.3.39-.09.87-.16,1.45-.23.59-.07,1.09-.11,1.49-.11.4,0,.71.02.95.08.23.06.41.15.52.27.11.12.18.25.2.42l.57,4.78,13.86-1.65ZM714.82,960.27c.15,1.22,0,2.09-.45,2.61-.44.52-1.33.86-2.68,1.02-1.36.16-2.31.05-2.83-.35-.53-.39-.86-1.17-1-2.34-.14-1.22,0-2.09.43-2.62.43-.53,1.33-.88,2.69-1.04,1.35-.16,2.29-.04,2.82.36.54.4.87,1.18,1.01,2.35Z"/>
    <path class="cls-2" d="M736.12,984.49c.09.7.12,1.25.08,1.64-.04.39-.12.67-.24.84-.12.17-.32.33-.58.49-.27.16-.58.3-.94.44-.37.14-.76.26-1.2.36-.43.11-.88.19-1.32.25-1.2.16-2.26.14-3.18-.05-.92-.19-1.71-.56-2.37-1.12-.66-.56-1.19-1.3-1.58-2.22-.4-.93-.68-2.04-.85-3.35l-1.42-10.96-2.57.33c-.3.04-.56-.12-.77-.47-.21-.35-.37-.97-.48-1.85-.06-.46-.09-.86-.09-1.18,0-.33.03-.58.08-.78.06-.19.14-.34.25-.43.11-.1.24-.15.4-.17l2.54-.33-.62-4.78c-.02-.16,0-.31.08-.45.07-.14.22-.27.44-.39.22-.12.52-.22.91-.31.39-.09.87-.17,1.44-.25.59-.08,1.09-.12,1.48-.13s.71.01.95.07c.24.06.41.15.52.26.11.12.18.25.2.41l.62,4.78,4.65-.61c.16-.02.3,0,.44.07.13.07.25.18.35.36.1.17.2.42.28.73.08.31.15.7.21,1.17.11.88.12,1.52,0,1.92-.11.4-.32.61-.62.65l-4.68.61,1.31,10.05c.15,1.17.45,2.02.89,2.56.44.54,1.14.74,2.08.62.32-.04.6-.11.85-.2.25-.09.47-.18.66-.28.19-.1.35-.18.48-.26.13-.07.25-.12.36-.13.1-.01.19,0,.29.05.09.04.18.15.25.31.07.16.14.38.22.67.08.28.15.65.2,1.1Z"/>
    <path class="cls-2" d="M762.48,981.79c.04.16.03.3-.02.44s-.17.27-.34.39c-.18.13-.42.25-.74.36-.31.12-.71.23-1.2.34-.52.12-.94.2-1.27.24-.33.04-.6.04-.81,0-.21-.03-.36-.1-.47-.2-.11-.1-.18-.23-.22-.38l-.57-2.43c-.87,1.53-1.83,2.75-2.88,3.66-1.05.91-2.22,1.52-3.51,1.82-1.44.34-2.71.39-3.81.15-1.09-.24-2.04-.7-2.83-1.37-.8-.67-1.45-1.52-1.96-2.53-.51-1.01-.96-2.32-1.33-3.92l-3.03-12.86c-.04-.16-.03-.3.03-.44.06-.14.19-.27.4-.41.21-.13.5-.26.88-.39.38-.13.85-.26,1.41-.39.58-.14,1.06-.23,1.45-.28.39-.05.7-.06.95-.04.25.02.43.08.55.18.12.1.2.22.24.38l2.79,11.87c.26,1.1.53,1.92.8,2.47.28.55.61,1,1,1.34.39.35.83.58,1.33.71.5.12,1.05.11,1.65-.03.75-.18,1.45-.63,2.08-1.36.63-.73,1.26-1.72,1.87-2.98l-3.28-13.97c-.04-.16-.03-.3.03-.44.06-.14.19-.27.4-.41.21-.13.5-.26.87-.39s.84-.26,1.42-.4c.58-.14,1.06-.23,1.45-.28.39-.05.7-.06.94-.03s.42.09.54.18c.12.1.2.22.24.38l4.94,21.01Z"/>
    <path class="cls-2" d="M781.91,972.74c.24.67.38,1.19.43,1.58.05.39.03.68-.06.87-.08.19-.24.39-.46.6-.22.21-.5.42-.83.63s-.69.42-1.09.61c-.4.2-.81.37-1.24.53-1.14.41-2.18.62-3.11.64s-1.79-.18-2.55-.58c-.76-.4-1.44-1.01-2.02-1.83-.59-.82-1.11-1.85-1.56-3.09l-3.76-10.4-2.43.88c-.29.1-.57,0-.85-.3-.28-.3-.57-.87-.87-1.7-.16-.44-.28-.82-.35-1.13-.07-.32-.1-.58-.09-.78.01-.2.06-.36.15-.48.09-.12.21-.2.36-.26l2.41-.87-1.64-4.53c-.05-.15-.06-.3-.02-.45s.15-.31.34-.47c.19-.16.46-.33.82-.5s.81-.36,1.36-.56c.56-.2,1.03-.35,1.42-.45.38-.1.7-.14.94-.13.24,0,.43.05.57.14.13.09.23.21.28.36l1.64,4.53,4.41-1.6c.15-.05.3-.07.44-.03.14.03.28.13.42.27.14.15.28.36.43.65.15.29.3.65.46,1.09.3.83.44,1.46.42,1.87-.02.41-.18.67-.47.77l-4.44,1.61,3.45,9.53c.4,1.11.88,1.87,1.43,2.3.55.43,1.27.48,2.17.15.3-.11.57-.23.79-.38s.42-.28.58-.42c.16-.14.3-.26.41-.35.11-.1.22-.17.32-.21.09-.03.19-.04.29-.01s.21.11.31.25c.1.14.22.34.36.6.14.26.28.6.44,1.03Z"/>
    <path class="cls-2" d="M801.04,953.48c.33.67.42,1.23.28,1.7-.14.46-.47.82-.99,1.08l-11.79,5.8c.41.82.87,1.53,1.4,2.1.53.58,1.12,1,1.78,1.26.66.26,1.38.35,2.18.26.79-.08,1.66-.36,2.6-.82.96-.47,1.76-.95,2.42-1.44.66-.49,1.21-.95,1.65-1.38.45-.43.81-.79,1.09-1.1.28-.31.53-.52.75-.62.13-.06.25-.09.36-.08.11,0,.23.06.35.17.12.1.25.27.39.49.14.23.3.52.48.89.16.32.28.59.38.83s.17.43.22.61.07.33.07.47c0,.14-.03.28-.07.43-.04.15-.23.41-.57.79-.34.38-.79.81-1.36,1.3-.57.49-1.24,1-2.02,1.53-.78.54-1.65,1.04-2.6,1.51-1.72.85-3.34,1.37-4.85,1.57-1.51.2-2.91.08-4.22-.38-1.3-.46-2.5-1.25-3.59-2.39s-2.08-2.61-2.97-4.42c-.85-1.72-1.39-3.39-1.62-4.99-.23-1.6-.16-3.09.23-4.48.38-1.38,1.06-2.63,2.03-3.73.98-1.11,2.23-2.04,3.76-2.79,1.62-.8,3.13-1.24,4.51-1.33,1.39-.09,2.66.11,3.81.59s2.19,1.22,3.11,2.21c.92.99,1.71,2.16,2.38,3.52l.43.87ZM794.97,954.52c-.71-1.56-1.61-2.61-2.7-3.16-1.09-.55-2.32-.49-3.7.19-.7.34-1.24.77-1.62,1.28-.39.51-.64,1.07-.76,1.68-.12.61-.13,1.26-.01,1.95.11.69.32,1.38.63,2.08l8.16-4.01Z"/>
  </g>
  <path class="cls-7" d="M979.51,822.32s-1.97,14.5-15.74,6.53c-13.77-7.98-16.39,7.25-16.39,13.05s-7.87,80.49,9.18,91.37c17.05,10.88,41.31-10.15,41.31-29.73s-18.36-81.21-18.36-81.21Z"/>
  <path class="cls-9" d="M947.38,841.89s6.06,15.23,24.34,5.8c18.28-9.43,39.27-14.87,63.53,3.08,0,0-29.51,12.87-34.75,42.27,34.75,18.46,34.75,64.14,34.75,64.14,0,0-19.02-33.36-43.93-13.78-24.92,19.58-37.38,1.45-43.93-10.15-6.56-11.6-8.48-50.72,0-91.37Z"/>
  <g>
    <path class="cls-13" d="M390.16,309.35l3.82-17.28,4.42-.89,10.22,14.46-4.67.94-8.23-12.57,1.77-.36-2.74,14.77-4.58.92ZM393.37,305.5l.49-3.54,7.75-1.56,1.82,3.08-10.07,2.02Z"/>
    <path class="cls-13" d="M431.96,300.95l-2.47-12.31-4.87.98-.72-3.56,14.21-2.86.72,3.56-4.85.97,2.47,12.31-4.49.9Z"/>
    <path class="cls-13" d="M463.21,294.67l-3.19-15.87,4.49-.9,3.19,15.87-4.49.9Z"/>
  </g>
</svg>