<?xml version="1.0" encoding="UTF-8"?>
<svg id="Layer_1" data-name="Layer 1" xmlns="http://www.w3.org/2000/svg" xmlns:xlink="http://www.w3.org/1999/xlink" viewBox="0 0 1080 1080">
  <defs>
    <style>
      .cls-1 {
        fill: url(#linear-gradient);
      }

      .cls-1, .cls-2, .cls-3, .cls-4, .cls-5, .cls-6 {
        stroke-width: 0px;
      }

      .cls-2 {
        fill: none;
      }

      .cls-3 {
        fill: url(#linear-gradient-2);
      }

      .cls-7 {
        clip-path: url(#clippath);
      }

      .cls-4 {
        fill: #fffdc5;
      }

      .cls-5 {
        fill: #ef091f;
      }

      .cls-6 {
        fill: #fff;
      }
    </style>
    <linearGradient id="linear-gradient" x1="1074.06" y1="-25.18" x2="113.96" y2="780.44" gradientUnits="userSpaceOnUse">
      <stop offset="0" stop-color="#dc9617"/>
      <stop offset=".16" stop-color="#ed8f00"/>
      <stop offset=".47" stop-color="#ffcf25"/>
      <stop offset=".59" stop-color="#ffdb3d"/>
      <stop offset=".63" stop-color="#f5c52e"/>
      <stop offset=".74" stop-color="#de940c"/>
      <stop offset=".79" stop-color="#d68100"/>
    </linearGradient>
    <linearGradient id="linear-gradient-2" x1="272.19" y1="633.37" x2="905.65" y2="282.23" gradientUnits="userSpaceOnUse">
      <stop offset="0" stop-color="#1f92f1"/>
      <stop offset=".32" stop-color="#0950f5"/>
      <stop offset=".68" stop-color="#1f92f1"/>
      <stop offset=".93" stop-color="#0950f5"/>
      <stop offset="1" stop-color="#0950f5"/>
    </linearGradient>
    <clipPath id="clippath">
      <path class="cls-2" d="M195.49,222.87c24.59,9.87,111.29,41.14,212.03,7.2,69.33-23.36,112.27-66.46,131.49-88.55,17.51,19.76,68.77,72.38,154.95,93.35,85.37,20.78,154.48-1.79,179.23-11.2,4.35,95.77,4.51,382.04-196.89,600.27-44.69,48.42-92.12,85.71-137.29,114.54-35.07-21.56-69.77-47.26-102.92-77.95C209.96,651.26,194.99,339.34,195.49,222.87Z"/>
    </clipPath>
  </defs>
  <g>
    <path class="cls-1" d="M137.98,125.71c16.18,9.26,132,73.04,260.66,22.72,81.06-31.7,124.46-91.97,140.1-116.36,13.64,20.54,66.04,94.1,167.19,123.1,119.25,34.19,216.1-19.38,233.57-29.46,10.37,109.85,32.72,491.33-225.76,776.22-56.46,62.23-117.09,109.67-175,146.01-52.01-31.31-95.23-65.42-131.19-99.36C119.07,676.33,129.63,255.84,137.98,125.71Z"/>
    <path class="cls-4" d="M538.97,999.28l-4.3-2.62c-42.36-25.77-81.88-55.71-117.49-88.98-110.74-103.47-187.23-241.25-227.37-409.5-24.06-100.85-34.3-208.91-30.43-321.2l.45-13.04,11.5,6.16c14.14,7.57,70.39,35.04,141.52,35.04,30.89,0,64.59-5.18,98.87-19.41,61.07-25.36,99.19-68.41,120.42-100.06l6.53-9.74,6.82,9.54c20.62,28.86,66.73,81,143.94,105.99,97.32,31.51,180.86-.08,212.26-15.13l10.82-5.19.79,11.97c6.45,97.77.26,194.09-18.4,286.29-31.62,156.22-97.25,289.62-195.06,396.51-45.54,49.76-98.23,93.72-156.61,130.66l-4.26,2.69ZM175.23,190.22c-4.33,177.18,24.77,492.3,253.03,705.6,33.59,31.39,70.76,59.74,110.54,84.33,55.47-35.6,105.6-77.7,149.06-125.19,200.63-219.24,218.61-502.31,209.95-659.05-39.15,16.7-120.26,41.15-213.38,11.01-74.01-23.96-120.97-71.47-145.33-102.85-23.44,32.24-62.19,72.18-121.15,96.66-52.04,21.61-108.34,26.47-167.32,14.45-32.93-6.71-59.46-17.45-75.4-24.96Z"/>
    <path class="cls-3" d="M195.49,222.87c24.59,9.87,111.29,41.14,212.03,7.2,69.33-23.36,112.27-66.46,131.49-88.55,17.51,19.76,68.77,72.38,154.95,93.35,85.37,20.78,154.48-1.79,179.23-11.2,4.35,95.77,4.51,382.04-196.89,600.27-44.69,48.42-92.12,85.71-137.29,114.54-35.07-21.56-69.77-47.26-102.92-77.95C209.96,651.26,194.99,339.34,195.49,222.87Z"/>
    <path class="cls-6" d="M558.16,688.09l12.14-38.78c1.05-3.35,5.88-3.08,6.54.37l7.74,39.89c.81,4.16,5.18,6.57,9.13,5.04l37.88-14.69c3.27-1.27,6.07,2.67,3.79,5.34l-26.36,30.92c-2.75,3.22-1.91,8.15,1.75,10.28l35.1,20.46c3.03,1.77,1.7,6.41-1.81,6.3l-40.61-1.33c-4.23-.14-7.56,3.59-6.95,7.78l5.89,40.2c.51,3.47-3.96,5.32-6.05,2.51l-24.28-32.58c-2.53-3.4-7.52-3.67-10.41-.58l-27.76,29.67c-2.4,2.56-6.63.23-5.74-3.17l10.33-39.3c1.08-4.1-1.81-8.17-6.04-8.5l-40.51-3.2c-3.5-.28-4.31-5.04-1.1-6.46l37.17-16.42c3.87-1.71,5.26-6.51,2.88-10.02l-22.75-33.67c-1.97-2.91,1.26-6.51,4.37-4.89l36.01,18.82c3.75,1.96,8.37.05,9.63-3.99Z"/>
    <path class="cls-6" d="M774.03,288.64l-2.26-1.32c-1.85-1.08-2.28-3.57-.89-5.2l1.7-1.99c1.15-1.35-.26-3.35-1.92-2.71l-2.44.95c-2,.77-4.21-.45-4.62-2.55l-.5-2.57c-.34-1.74-2.78-1.88-3.31-.19l-.78,2.5c-.64,2.05-2.98,3.01-4.88,2.02l-2.32-1.21c-1.57-.82-3.2,1-2.21,2.47l1.47,2.17c1.2,1.78.5,4.21-1.46,5.07l-2.4,1.06c-1.62.72-1.21,3.13.56,3.27l2.61.21c2.14.17,3.6,2.23,3.06,4.3l-.67,2.53c-.45,1.72,1.69,2.9,2.9,1.6l1.79-1.91c1.46-1.57,3.99-1.42,5.27.29l1.57,2.1c1.06,1.42,3.32.49,3.06-1.27l-.38-2.59c-.31-2.12,1.37-4.01,3.52-3.94l2.62.09c1.78.06,2.45-2.29.92-3.19Z"/>
    <path class="cls-6" d="M743.73,352.63l-1.99-1.16c-1.63-.95-2.01-3.15-.78-4.58l1.5-1.76c1.02-1.19-.23-2.95-1.69-2.38l-2.15.83c-1.76.68-3.71-.39-4.07-2.25l-.44-2.27c-.3-1.54-2.45-1.66-2.92-.16l-.69,2.2c-.56,1.8-2.62,2.66-4.3,1.78l-2.05-1.07c-1.39-.72-2.82.88-1.95,2.18l1.29,1.91c1.06,1.57.44,3.71-1.29,4.47l-2.11.93c-1.43.63-1.07,2.76.49,2.88l2.3.18c1.88.15,3.17,1.97,2.69,3.79l-.59,2.23c-.4,1.51,1.49,2.56,2.56,1.41l1.58-1.69c1.29-1.38,3.51-1.26,4.64.26l1.38,1.85c.94,1.26,2.93.43,2.7-1.12l-.33-2.28c-.27-1.87,1.21-3.53,3.1-3.47l2.31.08c1.56.05,2.16-2.02.81-2.81Z"/>
    <path class="cls-6" d="M803.03,365.53l-1.77-1.03c-1.45-.85-1.78-2.8-.69-4.07l1.33-1.56c.9-1.06-.21-2.62-1.5-2.12l-1.91.74c-1.56.61-3.3-.35-3.62-2l-.39-2.01c-.26-1.37-2.18-1.47-2.59-.14l-.61,1.96c-.5,1.6-2.33,2.36-3.82,1.58l-1.82-.95c-1.23-.64-2.51.78-1.73,1.94l1.15,1.7c.94,1.39.39,3.29-1.14,3.97l-1.88.83c-1.27.56-.95,2.45.44,2.56l2.04.16c1.67.13,2.82,1.75,2.39,3.37l-.52,1.98c-.35,1.34,1.32,2.27,2.27,1.26l1.4-1.5c1.15-1.23,3.12-1.11,4.13.23l1.23,1.64c.83,1.12,2.6.38,2.4-.99l-.3-2.03c-.24-1.66,1.08-3.14,2.75-3.08l2.05.07c1.39.05,1.92-1.8.72-2.5Z"/>
    <path class="cls-6" d="M788.38,441.84l-2.26-1.32c-1.85-1.08-2.28-3.57-.89-5.2l1.7-1.99c1.15-1.35-.26-3.35-1.92-2.71l-2.44.95c-2,.77-4.21-.45-4.62-2.55l-.5-2.57c-.34-1.74-2.78-1.88-3.31-.19l-.78,2.5c-.64,2.05-2.98,3.01-4.88,2.02l-2.32-1.21c-1.57-.82-3.2,1-2.21,2.47l1.47,2.17c1.2,1.78.5,4.21-1.46,5.07l-2.4,1.06c-1.62.72-1.21,3.13.56,3.27l2.61.21c2.14.17,3.6,2.23,3.06,4.3l-.67,2.53c-.45,1.72,1.69,2.9,2.9,1.6l1.79-1.91c1.46-1.57,3.99-1.42,5.27.29l1.57,2.1c1.06,1.42,3.32.49,3.06-1.27l-.38-2.59c-.31-2.12,1.37-4.01,3.52-3.94l2.62.09c1.78.06,2.45-2.29.92-3.19Z"/>
    <path class="cls-6" d="M822.71,324.14l-1.9-1.11c-1.55-.91-1.91-3-.74-4.37l1.43-1.67c.97-1.13-.22-2.81-1.61-2.27l-2.05.79c-1.68.65-3.53-.38-3.88-2.14l-.42-2.16c-.28-1.46-2.33-1.58-2.78-.16l-.66,2.1c-.54,1.72-2.5,2.53-4.09,1.7l-1.95-1.02c-1.32-.69-2.69.84-1.85,2.08l1.23,1.82c1.01,1.49.42,3.53-1.22,4.26l-2.01.89c-1.36.6-1.02,2.63.47,2.74l2.19.17c1.79.14,3.02,1.87,2.56,3.61l-.56,2.13c-.38,1.44,1.42,2.43,2.44,1.35l1.5-1.61c1.23-1.31,3.35-1.19,4.42.25l1.31,1.76c.89,1.19,2.79.41,2.57-1.07l-.32-2.18c-.26-1.78,1.15-3.36,2.95-3.3l2.2.07c1.49.05,2.06-1.92.77-2.67Z"/>
    <g class="cls-7">
      <g>
        <polygon class="cls-6" points="174.29 483.78 265.3 410.01 279.11 399.45 162.12 422.8 147.04 347.21 262.88 324.09 247.22 319.41 134.87 286.23 130.31 263.42 180.98 253.31 335.4 299.28 320.66 225.43 408.04 207.99 422.78 281.83 547.69 180.12 598.25 170.03 602.82 192.89 511.93 266.57 497.28 277.29 614.97 253.81 630.06 329.39 513.35 352.68 530.01 357.16 642.22 390.3 646.71 412.8 595.45 423.03 441.83 377.29 456.49 450.77 369.11 468.21 354.45 394.76 230.19 495.93 178.77 506.19 174.29 483.78"/>
        <polygon class="cls-5" points="367.95 364.17 158.95 405.88 150.54 363.71 359.53 322 339.51 221.68 388.75 211.86 408.77 312.17 618.31 270.35 626.73 312.52 417.18 354.34 437.2 454.62 387.96 464.44 367.95 364.17"/>
        <polygon class="cls-5" points="311.4 311.8 135 260.23 138.93 279.9 273.33 319.39 311.4 311.8"/>
        <polygon class="cls-5" points="142.43 276.7 140.3 266.01 294.38 311.05 273.52 315.22 142.43 276.7"/>
        <polygon class="cls-5" points="464.06 364.38 640.45 415.94 636.52 396.27 502.12 356.78 464.06 364.38"/>
        <polygon class="cls-5" points="481.07 365.12 501.94 360.96 633.02 399.48 635.15 410.16 481.07 365.12"/>
        <polygon class="cls-5" points="308.87 395.78 166.7 510.88 203.85 503.5 341.12 392.87 340.44 389.48 308.87 395.78"/>
        <polygon class="cls-5" points="310.65 399.56 331.51 395.4 202.08 499.72 182.02 503.7 310.65 399.56"/>
        <polygon class="cls-5" points="607.83 165.35 572.11 172.48 433.87 283.89 434.44 286.72 467.09 280.2 607.83 165.35"/>
        <polygon class="cls-5" points="573.88 176.26 592.62 172.53 465.3 276.42 444.45 280.58 573.88 176.26"/>
      </g>
    </g>
  </g>
  <g>
    <path class="cls-6" d="M347.55,357.43l4.69-21.23,5.43-1.09,12.56,17.77-5.74,1.15-10.12-15.45,2.17-.44-3.37,18.16-5.63,1.13ZM351.49,352.69l.6-4.35,9.53-1.91,2.24,3.78-12.37,2.49Z"/>
    <path class="cls-6" d="M398.91,347.11l-3.04-15.13-5.99,1.2-.88-4.37,17.47-3.51.88,4.37-5.96,1.2,3.04,15.13-5.52,1.11Z"/>
    <path class="cls-6" d="M437.31,339.39l-3.92-19.5,5.52-1.11,3.92,19.5-5.52,1.11Z"/>
  </g>
</svg>